<?xml version="1.0" encoding="UTF-8"?>
<svg width="501px" height="95px" viewBox="0 0 501 95" version="1.1" xmlns="http://www.w3.org/2000/svg" xmlns:xlink="http://www.w3.org/1999/xlink">
    <!-- Generator: Sketch 53.2 (72643) - https://sketchapp.com -->
    <title>tree-nation-logo-navbar</title>
    <desc>Created with Sketch.</desc>
    <defs>
        <linearGradient x1="-1.07919741%" y1="50.0007273%" x2="101.045364%" y2="50.0007273%" id="linearGradient-1">
            <stop stop-color="#4BBB63" offset="0%"></stop>
            <stop stop-color="#62BD58" offset="11%"></stop>
            <stop stop-color="#79C14E" offset="24%"></stop>
            <stop stop-color="#A4CA49" offset="39%"></stop>
            <stop stop-color="#BEC344" offset="42%"></stop>
            <stop stop-color="#DCBA3F" offset="48%"></stop>
            <stop stop-color="#E7B73D" offset="51%"></stop>
            <stop stop-color="#E7B53D" offset="51%"></stop>
            <stop stop-color="#EF9038" offset="57%"></stop>
            <stop stop-color="#F28236" offset="61%"></stop>
            <stop stop-color="#F17F36" offset="62%"></stop>
            <stop stop-color="#EF7335" offset="68%"></stop>
            <stop stop-color="#EE6B37" offset="71%"></stop>
            <stop stop-color="#ED613A" offset="78%"></stop>
            <stop stop-color="#EC5A3D" offset="81%"></stop>
            <stop stop-color="#EA5241" offset="86%"></stop>
            <stop stop-color="#EB474A" offset="90%"></stop>
            <stop stop-color="#EB3F50" offset="94%"></stop>
            <stop stop-color="#E9314F" offset="97%"></stop>
            <stop stop-color="#E82A4F" offset="100%"></stop>
        </linearGradient>
    </defs>
    <g id="Get-started" stroke="none" stroke-width="1" fill="none" fill-rule="evenodd">
        <g id="tree-nation-logo-navbar" transform="translate(1.000000, 0.000000)">
            <g id="Group" transform="translate(110.000000, 23.000000)">
                <path d="M270.11,29.23 L270.11,35.52 C269.994291,36.8827201 270.459301,38.230956 271.390487,39.232599 C272.321672,40.234242 273.632472,40.796183 275,40.78 C276.91,40.93 278.82,41.01 280.73,41.05 C281.56,41.05 282.01,41.16 281.99,42.17 C281.89,45.17 281.9,48.09 281.86,51.07 C281.86,51.71 281.76,52.19 280.93,52.23 C275.13,52.42 269.43,52.13 264.57,48.38 C260.01,44.85 257.36,40.26 257.33,34.43 C257.25,24.94 257.33,15.43 257.27,5.93 C257.27,4.61 257.61,4.25 258.93,4.3 C262.18,4.4 265.45,4.39 268.72,4.3 C269.9,4.3 270.15,4.64 270.14,5.76 C270.07,9.48 270.14,13.22 270.09,16.96 C270.09,18.09 270.39,18.43 271.53,18.39 C274.21,18.31 276.9,18.39 279.58,18.39 C280.69,18.39 281.58,18.29 281.58,19.92 C281.58,21.75 280.35,21.1 279.58,21.13 C277.02,21.19 274.45,21.27 271.88,21.13 C270.35,21.05 270.05,21.59 270.13,22.98 C270.2,25 270.11,27.13 270.11,29.23 Z" id="Path" fill="#ED613A"></path>
                <path d="M13.72,11.39 C13.72,13.24 13.79,15.11 13.72,16.98 C13.66,18.2 14.12,18.43 15.21,18.39 C18.06,18.32 20.92,18.39 23.78,18.39 C25.05,18.39 24.99,18.99 25.02,19.88 C25.05,20.77 24.89,21.23 23.82,21.19 C20.9,21.12 17.98,21.19 15.06,21.19 C14.12,21.19 13.77,21.38 13.78,22.41 C13.78,27.02 13.78,31.62 13.78,36.23 C13.73422,38.6701152 15.6418479,40.7019608 18.08,40.81 C20.16,40.97 22.25,41.07 24.34,41.13 C25.22,41.13 25.58,41.34 25.56,42.29 C25.51,45.07 25.56,47.88 25.56,50.68 C25.56,51.92 25.1,52.32 23.81,52.33 C19.5,52.33 15.2,52.33 11.26,50.33 C4.59,46.84 0.93,41.43 0.91,33.79 C0.91,24.53 0.91,15.26 0.91,5.98 C0.91,4.8 1.15,4.36 2.42,4.41 C5.74,4.5 9.07,4.49 12.42,4.41 C13.62,4.41 13.89,4.8 13.85,5.9 C13.67,7.65 13.72,9.52 13.72,11.39 Z" id="Path" fill="#4BBB63"></path>
                <path d="M350.07,36.6 C350.07,41.26 350.02,45.92 350.07,50.6 C350.07,51.92 349.69,52.3 348.38,52.27 C347.07,52.24 346.81,51.85 346.82,50.66 C346.86,40.0533333 346.86,29.4466667 346.82,18.84 C346.82,17.59 347.27,17.31 348.45,17.31 C355.9,17.37 363.38,17.1 370.82,17.37 C380.98,17.77 389.92,25.73 389.92,36.56 C389.92,41.34 389.92,45.67 389.92,50.56 C389.92,51.78 389.67,52.32 388.28,52.27 C385.08,52.17 381.96,52.19 378.76,52.27 C377.54,52.27 377.18,51.97 377.19,50.73 C377.19,44.33 377.19,41.23 377.19,34.3 C377.19,27.58 370.83,20.76 363.78,21.11 C355.99,21.11 358.92,21.11 351.54,21.11 C350.36,21.11 349.97,21.35 350,22.61 C350.12,27.27 350.07,31.93 350.07,36.6 Z" id="Path" fill="#E82A4F"></path>
                <path d="M165.86,34.71 C165.86,29.46 165.91,24.22 165.86,18.98 C165.86,17.55 166.29,17.27 167.61,17.29 C174.89,17.35 182.18,17.18 189.46,17.35 C198.83,17.56 207.85,24.84 208.62,34.29 C209.08,39.92 208.71,45.56 208.9,51.21 C208.9,51.95 208.64,52.21 207.9,52.21 C204.3,52.21 200.68,52.21 197.07,52.21 C195.8,52.21 196.07,51.4 196.07,50.68 C196.07,45.14 196.18,39.61 196,34.08 C195.78,27.26 189.7,20.75 182.67,21.08 C178.77,21.28 174.86,21.17 170.95,21.08 C169.42,21.08 168.95,21.4 168.95,23.08 C169.05,32.25 168.95,41.38 169.02,50.54 C169.02,51.73 168.81,52.34 167.4,52.29 C166.26,52.29 165.93,51.99 165.94,50.83 C165.89,45.44 165.86,40.08 165.86,34.71 Z" id="Path" fill="#F28236"></path>
                <path d="M80.11,39.14 C82.01,41.28 84.57,41.61 87.11,41.72 C90.84,41.84 94.57,41.78 98.3,41.72 C99.38,41.72 99.7,42.05 99.67,43.11 C99.61,45.67 99.67,48.24 99.67,50.8 C99.67,51.8 99.37,52.28 98.27,52.25 C92.75,52.06 87.2,52.66 81.7,51.9 C72.85,50.66 64.9,42.06 66.75,31.9 C68.05,24.78 72,20 79,17.89 C87.05,15.48 95.22,19.09 98.5,26.42 C98.64,26.75 98.79,27.05 98.92,27.37 C99.56,28.98 99.19,29.86 97.46,30.64 C91.95,33.17 86.55,35.93 81.12,38.64 C80.8,38.79 80.51,38.96 80.12,39.18 L80.11,39.14 Z M76.9,30.12 C76.9126273,31.929145 77.4702063,33.6924886 78.5,35.18 C78.83,35.7 79.09,35.75 79.64,35.47 C84.3933333,33.0766667 89.16,30.7033333 93.94,28.35 C94.52,28.06 94.61,27.8 94.38,27.14 C93.15,23.3 88.88,20.45 84.97,21.07 C80.48,21.74 76.69,25.55 76.89,30.08 L76.9,30.12 Z" id="Shape" fill="#79C14E"></path>
                <path d="M115.86,39.14 C117.76,41.28 120.32,41.61 122.86,41.72 C126.59,41.84 130.32,41.78 134.05,41.72 C135.14,41.72 135.45,42.05 135.43,43.11 C135.37,45.67 135.37,48.24 135.43,50.8 C135.43,51.8 135.14,52.28 134.03,52.25 C128.52,52.06 122.95,52.66 117.46,51.9 C108.61,50.66 100.66,42.06 102.51,31.9 C103.82,24.75 107.78,19.97 114.78,17.9 C122.83,15.49 131,19.1 134.28,26.43 C134.43,26.76 134.58,27.06 134.71,27.38 C135.35,28.99 134.97,29.87 133.24,30.65 C127.73,33.18 122.33,35.94 116.9,38.65 C116.56,38.75 116.26,38.92 115.86,39.14 Z M112.64,30.08 C112.646989,31.8900308 113.205084,33.6550052 114.24,35.14 C114.58,35.66 114.83,35.71 115.38,35.43 C120.13,33.04 124.91,30.67 129.68,28.31 C130.26,28.02 130.35,27.76 130.13,27.1 C128.89,23.26 124.62,20.41 120.71,21.03 C116.24,21.74 112.44,25.55 112.64,30.08 L112.64,30.08 Z" id="Shape" fill="#A4CA49"></path>
                <path d="M43.41,42.23 C43.41,45.09 43.41,47.96 43.41,50.8 C43.41,51.8 43.28,52.25 42.11,52.24 C38.62,52.15 35.11,52.17 31.62,52.24 C30.69,52.24 30.44,51.93 30.45,51.05 C30.45,45.5 30.16,39.93 30.54,34.42 C31.3603776,26.2845232 37.3141746,19.596586 45.3,17.84 C52.4155145,16.1286911 59.9235766,17.6515355 65.81,22 C66.31,22.37 67.29,22.68 66.52,23.57 C65.92,24.25 65.23,24.84 64.17,24.1 C61.7374161,22.2800072 58.767528,21.3228868 55.73,21.38 C50.32,21.52 45.19,25.89 43.73,31.79 C43.5799032,32.2251662 43.4727264,32.6739692 43.41,33.13 C43.4,36.17 43.42,39.2 43.41,42.23 Z" id="Path" fill="#62BD58"></path>
                <g transform="translate(286.000000, 0.000000)" fill="#EA5241" id="Path">
                    <path d="M14,7.78 C13.9713669,10.5490049 12.2760058,13.0275478 9.70573117,14.0580312 C7.13545651,15.0885146 4.19744925,14.4675976 2.26389883,12.4852781 C0.330348411,10.5029586 -0.21720619,7.55039898 0.876969128,5.00658527 C1.97114445,2.46277157 4.49114089,0.829663346 7.26,0.87 C11.33,1 14.3,4.26 14,7.78 Z"></path>
                    <path d="M13.63,34.8 C13.63,40.13 13.58,45.42 13.63,50.72 C13.63,51.97 13.29,52.3 12.07,52.25 C8.81,52.17 5.55,52.19 2.28,52.25 C1.1,52.25 0.65,51.93 0.66,50.67 C0.66,39.9633333 0.66,29.2433333 0.66,18.51 C0.66,17.51 0.95,17.24 1.93,17.25 C5.42333333,17.31 8.92,17.31 12.42,17.25 C13.5,17.25 13.62,17.65 13.61,18.56 C13.61,24 13.63,29.4 13.63,34.8 Z"></path>
                </g>
                <path d="M150.54,35.81 C153.14,35.81 155.77,35.87 158.38,35.81 C159.38,35.81 159.65,36.05 159.66,37.06 C159.76,41.43 159.78,41.42 155.42,41.42 C151.28,41.42 147.16,41.42 143.04,41.42 C141.93,41.42 141.54,41.17 141.54,39.99 C141.539953,35.79 141.48,35.79 145.65,35.79 L150.54,35.81 Z" id="Path" fill="#E7B73D"></path>
                <g transform="translate(303.000000, 17.000000)" fill="#EB3F50">
                    <path d="M20.06,0.61 C9.12,0.61 0.26,8.42 0.26,18.05 C0.26,27.68 9.12,35.49 20.06,35.49 C31,35.49 39.86,27.67 39.86,18.05 C39.86,8.43 31,0.61 20.06,0.61 Z M16.84,31.18 C9.58429099,31.1689542 3.71081267,25.2790627 3.72001436,18.0233511 C3.72921605,10.7676395 9.61761455,4.89266442 16.8733282,4.90002198 C24.1290419,4.90737955 30.0055134,10.7942847 30,18.05 C30.0000091,21.5374966 28.6125564,24.8817179 26.1437115,27.3449348 C23.6748666,29.8081516 20.3274875,31.1879684 16.84,31.18 L16.84,31.18 Z" id="Shape"></path>
                    <path d="M8,14.9 C8,12.3760587 10.0460587,10.33 12.57,10.33 L12.57,10.33 C15.0916597,10.3354998 17.1345002,12.3783403 17.14,14.9 L17.14,14.9 C17.140006,17.4255641 15.095558,19.4744857 12.57,19.48 L12.57,19.48 C10.044442,19.4744857 7.99999398,17.4255641 8,14.9 L8,14.9 Z" id="Path"></path>
                </g>
                <path d="M252.15,35.56 C252.351852,31.0065804 250.602145,26.5832035 247.34,23.4 C240.198082,16.2442923 228.980275,15.1699345 220.61,20.84 C215.48,24.32 212.46,29.27 212.9,35.53 C213.41,42.93 217.59,47.98 224.42,50.79 C229.3,52.79 234.42,52.06 239.51,52.15 L239.51,43.6 C236.3965,47.171868 231.695199,48.9381442 227,48.3 C221.44,47.67 216.66,42.65 215.54,37.02 C214.488347,31.3632601 217.207568,25.6743115 222.27,22.94 C232.16,17.35 242.59,25.16 242.79,34.39 C242.91,39.82 242.88,45.24 242.79,50.65 C242.79,51.92 243.16,52.25 244.36,52.19 C246.341943,52.0849929 248.328057,52.0849929 250.31,52.19 C251.72,52.27 252.09,51.8 252.07,50.42 C252.08,45.47 252,40.5 252.15,35.56 Z" id="Path" fill="#EF7335" fill-rule="nonzero"></path>
            </g>
            <g id="Group">
                <path d="M38,40.84 C36.1508319,43.7802052 32.9796329,45.6291375 29.51,45.79 C24.32,45.95 21.28,44.25 19.31,42.22 C14.88,46.42 12.68,50.84 12.68,55.22 C12.6624038,57.1067049 13.0263584,58.9774996 13.75,60.72 C15.692761,65.2695927 20.1629692,68.2208745 25.11,68.22 C27.5428534,68.319631 29.9329456,67.5583424 31.86,66.07 C34.1603923,64.0870266 35.4640373,61.1867827 35.42,58.15 C35.42,52.71 31.77,50.66 28.61,50.66 C24.78,50.66 22.95,52.92 22.95,54.98 C22.95,57.76 24.82,58.98 26.12,58.98 C28.21,58.98 29.12,57.72 29.12,56.5 C29.12,55.5 27.95,54.05 25.77,54.59 C26.1188997,53.6946003 27.0552963,53.1739134 28,53.35 C29.6996188,53.4150789 31.0339544,54.8294747 31,56.53 C31.0341621,57.7743388 30.5408445,58.9751599 29.6417909,59.836118 C28.7427374,60.697076 27.5216952,61.1379723 26.28,61.05 C24.7939357,61.0370206 23.3751556,60.4285964 22.3413622,59.3609697 C21.3075688,58.2933431 20.7451333,56.8557119 20.78,55.37 C20.78,52.55 22.78,48.19 28.98,48.19 C32.0870752,48.2100792 34.9608861,49.8419797 36.57,52.5 C37.255831,53.6224784 37.7239996,54.8641428 37.95,56.16 C37.95,56.39 38.02,56.61 38.04,56.84 C38.2115002,59.0056255 38.2482377,61.1798167 38.15,63.35 C38.15,80.68 38.15,84.62 38.15,93.7 L40.15,93.7 C40.15,75.91 40.15,58.93 40.15,42.14 C39.5093407,41.5918784 38.7830072,41.1527 38,40.84 Z" id="Path" fill="#4BBB63"></path>
                <path d="M53.31,56.83 C53.31,56.59 53.38,56.34 53.42,56.09 C53.6414901,54.6742996 54.1374474,53.3155126 54.88,52.09 C56.5619024,49.1837117 59.6426665,47.3701584 63,47.31 C69.77,47.31 71.91,52.05 71.91,55.12 C71.9531844,56.7388368 71.3401594,58.3063901 70.2102266,59.4664545 C69.0802937,60.6265189 67.5294126,61.2805759 65.91,61.28 C64.5598718,61.379734 63.2307745,60.902278 62.2527469,59.9661931 C61.2747193,59.0301083 60.7395023,57.723201 60.78,56.37 C60.7453003,54.5390449 62.1710037,53.0115055 64,52.92 C65.0150626,52.7478468 66.0145354,53.299423 66.41,54.25 C64.04,53.67 62.78,55.25 62.78,56.32 C62.78,57.65 63.78,59.02 66.03,59.02 C67.44,59.02 69.47,57.69 69.47,54.67 C69.47,52.43 67.47,49.97 63.32,49.97 C59.93,50 56,52.21 56,58.11 C55.8626408,61.1062916 57.0083719,64.0191857 59.1501894,66.1190068 C61.2920069,68.2188279 64.2270155,69.306659 67.22,69.11 C72.5970106,69.1009625 77.4527567,65.8926315 79.57,60.95 C80.3937823,59.0598232 80.7898844,57.011019 80.73,54.95 C80.55,49.34 78.6,44.12 70.73,39.19 C68.3210904,40.8828614 65.4088751,41.7078716 62.47,41.53 C59.7216708,41.4196653 57.0904442,40.3876046 55,38.6 C53.6226089,39.0169064 52.3222701,39.6552545 51.15,40.49 C51.15,57.36 51.15,76.25 51.15,93.49 L53,93.49 L53,62.76 C53,62.76 53,59.2 53.31,56.83 Z" id="Path" fill="#E82A4F"></path>
                <path d="M51.17,40.81 C51.17,38.89 51.17,36.98 51.17,35.09 C51.0784598,33.1131992 51.1118596,31.1325903 51.27,29.16 C51.27,28.95 51.27,28.75 51.36,28.54 C51.5578117,27.3597196 51.9822907,26.2289074 52.61,25.21 C54.0740298,22.7834283 56.6960227,21.2943485 59.53,21.28 C65.21,21.28 67,25.28 67,27.82 C67.0349057,29.1730932 66.5251698,30.4835621 65.5851403,31.4574327 C64.6451107,32.4313033 63.3534814,32.9870487 62,33 C60.865333,33.0888275 59.7465535,32.6900896 58.9238382,31.9036425 C58.1011229,31.1171954 57.6523842,30.0175168 57.69,28.88 C57.6617596,27.3359246 58.8766216,26.0543119 60.42,26 C61.2622735,25.8679015 62.0865179,26.3253571 62.42,27.11 C60.42,26.62 59.37,27.91 59.37,28.85 C59.37,29.96 60.19,31.11 62.09,31.11 C63.3,31.09 65,30 65,27.44 C65,25.57 63.34,23.5 59.85,23.5 C56.97,23.5 53.63,25.38 53.63,30.33 C53.592222,33.0967484 54.7779502,35.7390193 56.87,37.55 C57.1,37.73 57.35,37.9 57.6,38.07 C59.2327148,39.0744613 61.1239439,39.5785573 63.04,39.52 C64.9931899,39.4997664 66.9081664,38.9762476 68.6,38 C70.7497846,36.7946408 72.4382087,34.9092338 73.4,32.64 C74.0663381,31.057588 74.4064613,29.3569719 74.4,27.64 C74.3616424,23.6236093 72.7066064,19.792082 69.8087249,17.0108685 C66.9108435,14.229655 63.0145774,12.7333741 59,12.86 C56.2899458,12.8537717 53.6146104,13.4695778 51.18,14.66 C47.4580077,16.3940391 44.3959122,19.2842644 42.45,22.9 C42.61,23.04 43.19,23.47 43.35,23.62 C46.2851791,26.3558983 48.1826382,30.0236124 48.72,34 C48.72,34.26 48.8,34.52 48.83,34.79 C48.9570816,35.7520054 49.0338528,36.7199895 49.06,37.69 L49.06,41.56 L48.88,93.56 L51.16,93.49 C51.16,93.49 51.16,58.85 51.17,40.81 Z" id="Path" fill="#EF7335"></path>
                <path d="M49.06,35.56 C49.0541475,34.6907575 48.9973836,33.822604 48.89,32.96 C48.89,32.69 48.82,32.42 48.78,32.17 C48.39287,28.3052413 46.6498851,24.702364 43.86,22 L43.37,21.57 C42.3781469,20.7086687 41.2790239,19.9792813 40.1,19.4 C37.6925507,18.2144632 35.0435132,17.6018305 32.36,17.61 C28.3851523,17.4942113 24.5313303,18.9849907 21.6691474,21.7455577 C18.8069644,24.5061247 17.1779092,28.3035641 17.15,32.28 C17.1427132,33.997052 17.4828691,35.6978316 18.15,37.28 C18.773641,38.7466748 19.7085439,40.0603157 20.89,41.13 C22.9476569,42.9705288 25.6093062,43.9917766 28.37,44 C30.567907,44.0885891 32.7270399,43.401914 34.47,42.06 C35.1416509,41.5066981 35.7191443,40.848153 36.18,40.11 C37.1594973,38.5487249 37.6793527,36.7430937 37.68,34.9 C37.68,30 34.38,28.14 31.53,28.14 C28.07,28.14 26.43,30.14 26.43,32.04 C26.43,34.55 28.11,35.66 29.28,35.66 C31.17,35.66 31.98,34.52 31.98,33.42 C31.98,32.49 30.98,31.21 28.98,31.7 C29.3112102,30.9141701 30.1389773,30.4588982 30.98,30.6 C32.5107807,30.6543325 33.713787,31.9286281 33.68,33.46 C33.7048216,34.5813142 33.2577287,35.6615369 32.4477173,36.4373224 C31.6377059,37.213108 30.5391991,37.613178 29.42,37.54 C28.0710832,37.540456 26.7792086,36.9958641 25.8376985,36.0298747 C24.8961884,35.0638854 24.3849281,33.7584609 24.42,32.41 C24.42,29.87 26.2,25.93 31.82,25.93 C34.6297815,25.9368531 37.229991,27.4172643 38.67,29.83 C39.2954177,30.8381989 39.7167251,31.9594202 39.91,33.13 C39.91,33.33 39.97,33.54 40.01,33.74 C40.163257,35.6961246 40.1966528,37.6597953 40.11,39.62 L40.11,42.12 C40.11,58.9133333 40.11,76.1 40.11,93.68 L49.04,93.68 L49.06,35.56 Z" id="Path" fill="#A4CA49"></path>
                <path d="M0,47.31 C1.74617544e-06,28.5694445 11.2901091,11.6745815 28.6048991,4.50475117 C45.9196891,-2.66507911 65.8486163,1.30238609 79.097329,14.5568205 C92.3460417,27.8112549 96.3049016,47.7418934 89.1275958,65.053586 C81.9502901,82.3652786 65.0505537,93.64809 46.31,93.64 C34.0251721,93.6373481 22.2445523,88.7546758 13.5597425,80.0661154 C4.87493276,71.3775549 -0.0026524512,59.5948279 2.22044605e-16,47.31 L0,47.31 Z" id="Path" stroke="url(#linearGradient-1)" stroke-width="1.97"></path>
            </g>
        </g>
    </g>
</svg>