<?xml version="1.0" encoding="UTF-8" standalone="no"?>
<!-- Created with Inkscape (http://www.inkscape.org/) -->
<svg
   xmlns:dc="http://purl.org/dc/elements/1.1/"
   xmlns:cc="http://creativecommons.org/ns#"
   xmlns:rdf="http://www.w3.org/1999/02/22-rdf-syntax-ns#"
   xmlns:svg="http://www.w3.org/2000/svg"
   xmlns="http://www.w3.org/2000/svg"
   xmlns:sodipodi="http://sodipodi.sourceforge.net/DTD/sodipodi-0.dtd"
   xmlns:inkscape="http://www.inkscape.org/namespaces/inkscape"
   id="svg2443"
   sodipodi:version="0.32"
   inkscape:version="0.46"
   width="224.85001"
   height="254.41"
   xml:space="preserve"
   sodipodi:docname="PEFC Logo.svg"
   version="1.0"
   inkscape:output_extension="org.inkscape.output.svg.inkscape"><metadata
     id="metadata2448"><rdf:RDF><cc:Work
         rdf:about=""><dc:format>image/svg+xml</dc:format><dc:type
           rdf:resource="http://purl.org/dc/dcmitype/StillImage" /></cc:Work></rdf:RDF></metadata><defs
     id="defs2446"><inkscape:perspective
       sodipodi:type="inkscape:persp3d"
       inkscape:vp_x="0 : 526.18109 : 1"
       inkscape:vp_y="0 : 1000 : 0"
       inkscape:vp_z="744.09448 : 526.18109 : 1"
       inkscape:persp3d-origin="372.04724 : 350.78739 : 1"
       id="perspective2450" /><clipPath
       clipPathUnits="userSpaceOnUse"
       id="clipPath2458"><path
         d="M 403.586,384.079 L 458.853,292.099 L 595.275,374.069 L 595.275,398.547 L 550.814,472.543 L 403.586,384.079 z"
         id="path2460" /></clipPath><clipPath
       clipPathUnits="userSpaceOnUse"
       id="clipPath2492"><path
         d="M 498.646,713.905 L 561.262,713.905 L 561.262,791.17 L 498.646,791.17 L 498.646,713.905 z"
         id="path2494" /></clipPath><clipPath
       clipPathUnits="userSpaceOnUse"
       id="clipPath2520"><path
         d="M 498.647,713.905 L 561.261,713.905 L 561.261,791.17 L 498.647,791.17 L 498.647,713.905 z"
         id="path2522" /></clipPath><clipPath
       clipPathUnits="userSpaceOnUse"
       id="clipPath2544"><path
         d="M 498.646,713.905 L 561.262,713.905 L 561.262,791.17 L 498.646,791.17 L 498.646,713.905 z"
         id="path2546" /></clipPath><clipPath
       clipPathUnits="userSpaceOnUse"
       id="clipPath2642"><path
         d="M 51.065,519.024 L 167.521,519.024 L 167.521,659.024 L 51.065,659.024 L 51.065,519.024 z"
         id="path2644" /></clipPath><clipPath
       clipPathUnits="userSpaceOnUse"
       id="clipPath2702"><path
         d="M 309.683,309.026 L 555.59,309.026 L 555.59,85.04 L 309.683,85.04 L 309.683,309.026 z"
         id="path2704" /></clipPath></defs><sodipodi:namedview
     inkscape:window-height="974"
     inkscape:window-width="1280"
     inkscape:pageshadow="2"
     inkscape:pageopacity="0.0"
     guidetolerance="10.0"
     gridtolerance="10.0"
     objecttolerance="10.0"
     borderopacity="1.0"
     bordercolor="#666666"
     pagecolor="#ffffff"
     id="base"
     showgrid="false"
     inkscape:zoom="1"
     inkscape:cx="372.04749"
     inkscape:cy="326.18127"
     inkscape:window-x="-8"
     inkscape:window-y="-8"
     inkscape:current-layer="g2452" /><g
     id="g2452"
     inkscape:groupmode="layer"
     inkscape:label="pefc_nl40"
     transform="matrix(1.25,0,0,-1.25,-484.72813,988.96223)"><g
       id="g2488"
       transform="matrix(2.7705415,0,0,2.7705415,-988.93693,-1403.9987)"><g
         id="g2490"
         clip-path="url(#clipPath2492)"><g
           id="g2496"
           transform="translate(505.6189,730.0179)"><path
             d="M 0,0 L -6.973,-0.001 L -6.973,3.008 L 0.201,3.008 C 3.351,3.008 5.419,1.037 5.419,-1.504 C 5.419,-4.045 3.351,-6.036 0.201,-6.036 L -3.509,-6.036 L -3.509,-9.755 L -6.973,-9.755 L -6.973,-3.027 L 0,-3.029 C 1.507,-3.029 1.955,-2.358 1.955,-1.504 C 1.955,-0.671 1.507,0 0,0"
             style="fill:#006b4a;fill-opacity:1;fill-rule:nonzero;stroke:none"
             id="path2498" /></g><g
           id="g2500"
           transform="translate(514.3306,720.2626)"><path
             d="M 0,0 L 0,12.763 L 11.492,12.763 L 11.492,9.755 L 3.464,9.755 L 3.464,8.028 L 8.924,8.028 L 8.924,5.019 L 3.464,5.019 L 3.464,3.007 L 11.492,3.007 L 11.492,0 L 0,0 z"
             style="fill:#006b4a;fill-opacity:1;fill-rule:nonzero;stroke:none"
             id="path2502" /></g><g
           id="g2504"
           transform="translate(529.608,720.2626)"><path
             d="M 0,0 L 0,12.763 L 11.492,12.763 L 11.492,9.755 L 3.464,9.755 L 3.464,8.028 L 8.926,8.028 L 8.926,5.019 L 3.464,5.019 L 3.464,0 L 0,0 z"
             style="fill:#006b4a;fill-opacity:1;fill-rule:nonzero;stroke:none"
             id="path2506" /></g><g
           id="g2508"
           transform="translate(556.0212,722.3478)"><path
             d="M 0,0 C -1.532,-1.588 -3.612,-2.33 -5.715,-2.33 C -9.898,-2.33 -13.249,0.557 -13.249,4.296 C -13.249,8.035 -9.898,10.922 -5.715,10.922 C -3.602,10.922 -1.509,10.171 0.025,8.567 L -2.763,6.628 C -3.511,7.469 -4.518,7.914 -5.715,7.914 C -7.782,7.914 -9.674,6.307 -9.674,4.296 C -9.674,2.285 -7.782,0.678 -5.715,0.678 C -4.571,0.678 -3.531,1.1 -2.808,1.807 L 0,0"
             style="fill:#006b4a;fill-opacity:1;fill-rule:nonzero;stroke:none"
             id="path2510" /></g><g
           id="g2512"
           transform="translate(540.8987,756.4332)"><path
             d="M 0,0 L -8.218,0 L -8.218,-5.817 L -13.692,-5.817 L -13.692,0 L -22.265,0 L -22.07,0.064 C -18.375,2.086 -15.876,5.963 -15.876,10.413 C -15.876,11.169 -15.949,11.909 -16.086,12.626 L -10.946,22.396 L 0,0"
             style="fill:#006b4a;fill-opacity:1;fill-rule:nonzero;stroke:none"
             id="path2514" /></g></g></g><g
       id="g2516"
       transform="matrix(2.7705415,0,0,2.7705415,-988.93693,-1403.9987)"><g
         id="g2518"
         clip-path="url(#clipPath2520)"><g
           id="g2524"
           transform="translate(502.4914,766.6759)"><path
             d="M 0,0 C 0,5.499 4.537,9.956 10.132,9.956 C 15.728,9.956 20.264,5.499 20.264,0 C 20.264,-4.632 17.044,-8.525 12.684,-9.636 L 12.684,-16.231 L 7.211,-16.231 L 7.211,-9.535 C 3.039,-8.303 0,-4.5 0,0"
             style="fill:#006b4a;fill-opacity:1;fill-rule:nonzero;stroke:none"
             id="path2526" /></g><g
           id="g2528"
           transform="translate(500.0401,764.4277)"><path
             d="M 0,0 C 0.098,0.401 0.204,0.8 0.319,1.196 C 0.319,1.196 0.335,1.24 0.381,1.244 C 0.456,1.25 0.451,1.196 0.451,1.196 C 0.522,0.403 0.669,-0.37 0.884,-1.113 C -0.951,-12.66 6.65,-21.733 18.611,-21.733 C 30.206,-21.733 41.86,-13.207 46.012,-2.162 L 51.439,2.9 L 54.57,-0.577 C 50.724,-15.08 35.758,-26.741 20.846,-26.741 C 5.736,-26.741 -3.598,-14.771 0,0 M 47.232,2.252 C 49.328,14.004 41.686,23.3 29.578,23.3 C 21.916,23.3 14.229,19.576 8.697,13.865 C 8.106,13.664 7.534,13.42 6.988,13.136 C 6.988,13.136 6.918,13.096 6.857,13.163 C 6.804,13.222 6.842,13.28 6.842,13.28 C 13.518,21.323 23.708,26.742 33.872,26.742 C 47.883,26.742 56.925,16.448 55.301,3.176 L 52.068,6.765 L 47.232,2.252"
             style="fill:#006b4a;fill-opacity:1;fill-rule:nonzero;stroke:none"
             id="path2530" /></g></g></g><g
       id="g2532"
       transform="matrix(2.7705415,0,0,2.7705415,554.77802,633.38208)"><path
         d="M 0,0 L 1.744,0 L 1.744,-0.458 L 1.158,-0.458 L 1.158,-1.85 L 0.585,-1.85 L 0.585,-0.458 L 0,-0.458 L 0,0 z"
         style="fill:#006b4a;fill-opacity:1;fill-rule:nonzero;stroke:none"
         id="path2534" /></g><g
       id="g2536"
       transform="matrix(2.7705415,0,0,2.7705415,560.30441,633.38208)"><path
         d="M 0,0 L 0.755,0 L 1.04,-1.126 L 1.325,0 L 2.078,0 L 2.078,-1.85 L 1.61,-1.85 L 1.61,-0.439 L 1.252,-1.85 L 0.825,-1.85 L 0.47,-0.439 L 0.47,-1.85 L 0,-1.85 L 0,0 z"
         style="fill:#006b4a;fill-opacity:1;fill-rule:nonzero;stroke:none"
         id="path2538" /></g></g></svg>