<svg id="Layer_1" data-name="Layer 1" xmlns="http://www.w3.org/2000/svg" xmlns:xlink="http://www.w3.org/1999/xlink" viewBox="0 0 300 79.86"><defs><style>.cls-1{fill:none;}.cls-2{clip-path:url(#clip-path);}.cls-3{fill:#333;}.cls-4{fill:#d50045;}</style><clipPath id="clip-path" transform="translate(0 -1)"><rect class="cls-1" y="1" width="300" height="79.86"/></clipPath></defs><g id="Artwork_5" data-name="Artwork 5"><g class="cls-2"><g class="cls-2"><path class="cls-3" d="M233.56,47.11A29.46,29.46,0,0,0,232.14,42a26,26,0,0,0-5.57-8.87A27.35,27.35,0,0,0,217.72,27,29.28,29.28,0,0,0,206,24.78,30,30,0,0,0,194.15,27a27.06,27.06,0,0,0-9,6.13,26.5,26.5,0,0,0-5.66,9,29.86,29.86,0,0,0-2,10.8,28.46,28.46,0,0,0,2,10.58,26.49,26.49,0,0,0,14.67,14.88,30.05,30.05,0,0,0,11.68,2.21,29.59,29.59,0,0,0,15.52-4A24.39,24.39,0,0,0,231,66.44l.66-1.37-12.37-3.44-.52.68a15.91,15.91,0,0,1-27.58-4.18h42.31l.23-1A10.9,10.9,0,0,0,234,55c0-.82,0-1.67,0-2.51a29.6,29.6,0,0,0-.48-5.33M206.1,36.73a16,16,0,0,1,14.27,8.87H191.83a16,16,0,0,1,14.27-8.87" transform="translate(0 -1)"/><path class="cls-3" d="M112.77,47.11A29.46,29.46,0,0,0,111.35,42a26,26,0,0,0-5.57-8.87A27.46,27.46,0,0,0,96.93,27a29.3,29.3,0,0,0-11.74-2.26A30,30,0,0,0,73.36,27a27.06,27.06,0,0,0-9,6.13,26.53,26.53,0,0,0-5.67,9,30.08,30.08,0,0,0-1.95,10.8,28.67,28.67,0,0,0,2,10.58A26.57,26.57,0,0,0,73.41,78.39,30.05,30.05,0,0,0,85.09,80.6a29.61,29.61,0,0,0,15.53-4,24.3,24.3,0,0,0,9.55-10.2l.67-1.37L98.47,61.63l-.52.68a15.92,15.92,0,0,1-27.59-4.18h42.31l.24-1a10.3,10.3,0,0,0,.28-2.22c0-.82,0-1.67,0-2.51a29.59,29.59,0,0,0-.47-5.33M71,45.6a15.91,15.91,0,0,1,28.54,0Z" transform="translate(0 -1)"/><polygon class="cls-3" points="3.57 65.84 3.57 65.85 3.57 65.84 3.57 65.84"/><path class="cls-3" d="M3.37,68.53h0l0-.05s0,0,0,0" transform="translate(0 -1)"/><polygon class="cls-3" points="3.57 66.2 3.57 66.2 3.57 66.2 3.57 66.2"/><polygon class="cls-3" points="3.57 65.84 3.57 65.85 3.57 65.84 3.57 65.84"/><polygon class="cls-3" points="3.57 65.84 3.57 65.85 3.57 65.84 3.57 65.84"/><path class="cls-3" d="M3.57,66.84h0Zm0,.36Zm-.24,1.29,0,.05h0s0,0,0,0" transform="translate(0 -1)"/><path class="cls-3" d="M36.87,36.79,26,32.25c-5.71-2.32-11.09-4.52-11.09-10.15,0-5.25,4.74-8.65,12.07-8.65a23.41,23.41,0,0,1,6,.77l.16.09h.09c.18.06.35.12.51.19l.07,0,.15.05.42.19h0l.2.09.31.14c.3.14.59.29.83.43l.48.27.31.2.46.29.32.23a13.8,13.8,0,0,1,1.39,1.11,15.65,15.65,0,0,1,1.8,1.91l.58.69.8-.27,11.55-3.09-.7-1.39a23.72,23.72,0,0,0-9.59-9.87A28.43,28.43,0,0,0,32.1,1.94,28.21,28.21,0,0,0,27,1.45c-7.07,0-13.54,2.1-18.24,5.92A19.44,19.44,0,0,0,1.3,22.65c0,9.21,5.37,15.91,16.42,20.46l10.82,4.6c6.6,2.77,11.37,4.78,11.37,11s-5.28,9.85-13.77,9.85c-.66,0-1.3,0-1.88,0a16.78,16.78,0,0,1-4.58-1.08l-.21-.08-.19-.09L19,67.13h0l-.18-.08-.07,0-.24-.12c-.27-.13-.55-.27-.86-.45l-.16-.09-.2-.11-.07,0L16.88,66l-.45-.29-.28-.2,0,0c-.49-.35-.94-.73-1.39-1.12a16.17,16.17,0,0,1-1.81-2l-.56-.69-.82.27L0,65.1l.69,1.39A20.91,20.91,0,0,0,2.3,69.23l.18.31.29.34a25.3,25.3,0,0,0,7.51,6.6,27,27,0,0,0,8,3.11l.14.06h.13a29.18,29.18,0,0,0,7.41.88c8.06,0,15-2.24,20-6.47A20.72,20.72,0,0,0,53.58,58c0-12.57-8.45-17.76-16.71-21.18M3.35,68.54l0-.05s0,0,0,0Zm.22-1.34Zm0-.35h0Z" transform="translate(0 -1)"/><polygon class="cls-3" points="278.56 79.83 264.26 79.83 252.34 61.8 240.34 79.83 225.97 79.83 245.24 52.3 225.36 24.01 239.72 24.01 278.56 79.83"/><path class="cls-3" d="M159.54,1V29.05a26.71,26.71,0,0,0-15.09-4.61c-15.18,0-27.54,12.65-27.54,28.21s12.36,28.21,27.54,28.21a26.71,26.71,0,0,0,15.09-4.61v4.38h13.71V1ZM144.45,37.13a15.52,15.52,0,1,1-15.09,15.52,15.33,15.33,0,0,1,15.09-15.52" transform="translate(0 -1)"/><path class="cls-4" d="M274.7,1.81a25.29,25.29,0,0,0-20.15,40.58L266.6,24.28h13.45l-17.5,25A25.3,25.3,0,1,0,274.7,1.81" transform="translate(0 -1)"/></g></g></g></svg>