<svg id="site-logo" xmlns="http://www.w3.org/2000/svg" viewBox="0 0 300 115.44">
<defs> </defs>
<title>logo</title>
<g id="logotype">
<path style="fill:#6d8d3c;" class="cls-1" d="M289.22,47a23.05,23.05,0,0,0-19.32-4.76c-4.58.86-11,2.93-21.42,20.52-2.3,3.88-7.38,10.54-12.48,7.13-2.28-1.52-2.81-7.08-3-9.49,0,0,0-.6,0-.79s0-.54-.05-.77l-.09-1.42a84.91,84.91,0,0,0,11.7-20.47l6.37-.18c.71,0,4.47-.07,6.15-.89a5.53,5.53,0,0,0,2.45-2.59,9.38,9.38,0,0,0,.53-2.65c0-1.23-.78-1.24-1.37-1.25s-1.67,0-3.1-.07h-2.76l-2.66,0H248l-.79,0c6.85-22.62-.45-27.11-5.25-26.65A9.68,9.68,0,0,0,236,6c-1.7,1.87-7.83,8.27-10.74,24.05,0,0-3,0-6.78-.16-3.2-.14-4.75-.4-5.27.56a5.64,5.64,0,0,0-.49,2.92c.1,2,2,2.55,2.86,2.87,2.23.85,7.35,1,8.54.94-.19,2-.67,7-.7,10.78s.15,10.2.15,10.2a24,24,0,0,1-8.47,9.68c-2.49,1.61-8.28,4.28-7.43-4.66,0-.45.09-1.25.26-2.39s.41-2.46.7-4,.58-3.14.91-4.89.62-3.45.91-5.09.51-3.16.69-4.54a26.92,26.92,0,0,0,.27-3.28,2.36,2.36,0,0,0-1.34-2,7,7,0,0,0-3.6-.81,5.85,5.85,0,0,0-3,.64c-1.06.5-1.33,2.45-1.48,3.17,0,0-3.21,14.78-3.9,17.59a26,26,0,0,1-2.5,6.93c-2.73,5-5.8,4.63-5.8,4.63a3.63,3.63,0,0,1-2.76-1c-2.54-3.27,3.89-25.22,4.31-27.5.48-2.64.27-2.94-.33-3.58a5.23,5.23,0,0,0-3.12-1.06,4.48,4.48,0,0,0-2.94.5,10.42,10.42,0,0,0-2.13,2.3c-.56.75-5.68,8.63-11.59,4.85-2.72-1.74-4.12-2.93-5.77-3.95a16.64,16.64,0,0,0-8.45-3,14.65,14.65,0,0,0-8.23,1.32,19.36,19.36,0,0,0-6.69,4.93,22,22,0,0,0-3.46,5.47c-5.43.09-3.18-8.31-5.75-10.86a4.07,4.07,0,0,0-3-1.34,7.07,7.07,0,0,0-4.31,1.3,15.46,15.46,0,0,0-3.34,3.23,24.83,24.83,0,0,0-2.58,4.12,56.71,56.71,0,0,0-2.48,5.41H117c0-2.2.07-3.4.07-5V42.12c0-2-.48-4.16-2.38-5-1.15-.5-3.23-.9-5.6,1.25-4.41,4-7.93,16.7-14,22.66L95,61c3.56-8,.76-16.39-1.27-19a15.23,15.23,0,0,0-20.81-3.2c-5.83,4-9.4,11.25-8.81,28.4-4.75-2-8-3.64-8-3.64a20.61,20.61,0,0,0,2.16-7.25,16.1,16.1,0,0,0-1.58-8.22,21.29,21.29,0,0,0-4.32-5.83,34.9,34.9,0,0,0-6.09-4.64C44,36.3,41.7,35,39.3,33.82l-7-3.49a49.19,49.19,0,0,1-6.09-3.57C24.45,25.5,20.61,23.2,19.76,20c-.91-3.49,1.62-6.3,3.71-7.72A14.86,14.86,0,0,1,28.16,10a26.43,26.43,0,0,1,7.16-.87A27.16,27.16,0,0,1,50.21,14c5.21,3.62,9.51-.29,7.33-4.72a10.18,10.18,0,0,0-3.77-3.87,35.3,35.3,0,0,0-7.9-3.66A35.44,35.44,0,0,0,36.33.28,36.84,36.84,0,0,0,25.45,2a27.69,27.69,0,0,0-8.6,4.41,16.81,16.81,0,0,0-5.17,6.19A14.56,14.56,0,0,0,15.37,30.2a36.22,36.22,0,0,0,6.12,4.42q3.42,2,7,3.83l7,3.59a45.06,45.06,0,0,1,6.11,3.79,23.91,23.91,0,0,1,5.22,5,8.36,8.36,0,0,1,.8,7.94C34.9,50.53,24.16,44.85,15,44.77c-5.25,0-11.72,2.76-13.83,8.28C-3.22,64.54,6,71.67,8.63,73.41a28.62,28.62,0,0,0,8.87,3.88,41,41,0,0,0,10.28,1.3A46.66,46.66,0,0,0,42.38,76a26.39,26.39,0,0,0,9.2-5.47s6.15,3.13,10.22,4.62c-3.47,7.87-8.72,21.47-8.6,30C53.38,119.57,66.08,118,70,107.76,72.07,102.27,73.61,90,72.76,78a24.85,24.85,0,0,0,12.33-.36C98.32,74,106.94,57.87,110.32,47.74c.13-.41.62-.46.6.46-.09,6-3,22.34-3.27,23.62-.2,1.1-.77,5.28,1.82,6.14,1.36.45,4,.77,5.29.1a4.76,4.76,0,0,0,2.3-2.52c1.6-3.1,2-14.94,6.1-25.09,4.19-10.44,3.11,12,13.44,5.94,0,0-.15,2-.15,3a30.22,30.22,0,0,0,.82,7,19.74,19.74,0,0,0,2.61,6.23,14.14,14.14,0,0,0,4.56,4.48,12.51,12.51,0,0,0,6.69,1.71,14.06,14.06,0,0,0,5.12-.94,16.89,16.89,0,0,0,4.42-2.53,18.29,18.29,0,0,0,3.6-3.79A24,24,0,0,0,167,66.87a27,27,0,0,0,1.67-5.16,25.28,25.28,0,0,0,.58-5.29,21.37,21.37,0,0,0-.65-5.5,24.74,24.74,0,0,0-1.19-3.36l.19,0c.75,1.38,2.59,4.32,5.77,4.89,3.87.7,7-4,7-4l.11.06c-.47,1.51-1.53,7.28-2.83,14.81-.93,5.41-.37,9.17,0,10.42a8.35,8.35,0,0,0,1.58,3,5.48,5.48,0,0,0,2.29,1.64,7.6,7.6,0,0,0,2.76.5c1.18,0,7.88-.31,13.88-9.66.3,1.37,1.14,8.44,7.47,9.13,12.13,1.31,19.93-11.5,19.93-11.5a19.67,19.67,0,0,0,.58,2.24h0c0,.11.06.2.08.3s0,.16.07.23h0v.05c0,.1.06.18.08.27.12.39.24.76.37,1.12,0,.09.07.19.1.28l.09.23c0,.12.1.24.14.35l.09.21a2.44,2.44,0,0,0,.1.24,1.3,1.3,0,0,0,.08.17l.21.47.19.37.12.25c.09.15.17.31.26.45v0c.14.25.28.49.43.71l.12.19c.11.16.22.33.34.49a1.67,1.67,0,0,0,.12.16q.18.25.36.48l.09.11a6,6,0,0,0,.46.53h0a13.89,13.89,0,0,0,1.32,1.26.09.09,0,0,0,0,0,9,9,0,0,0,3.71,1.87c10.24,2,18.08-12.33,19.29-14.38C264.66,48.08,276.88,46,287.47,55.21c-15.26-8.53-27.21,3.66-27.91,9.12-.89,6.85,6.15,9.28,12.19,8.33,6.42-1,9.76-4.81,15-7.65,1.72-.93,6.83-3,13.23.71-2-8.43-5.91-14.6-10.78-18.75ZM34.35,68.22c-9.12,1.73-18.84-.59-22.56-3.91-3.93-3.49-2.84-8.28-.3-10,7-4.77,21.22,4.22,31,10.86a22.34,22.34,0,0,1-8.17,3Zm26.78,38.23C57.42,105.7,63.58,86,67.3,78.24c-.87,8.48-2.25,29-6.17,28.21ZM72.24,69.12c.07-9.26-.49-17.3,4.64-21.84,3.9-3.45,10-2.88,11.33,4.08.89,4.67,1.4,22.92-16,17.76Zm88.41-9.5c-.53,3.11-2.2,10.71-9.07,10-4.72-.5-6.79-6.73-5.58-13.93,1.06-6.26,5.08-11.46,9.87-10.39,5.3,1.19,5.59,9.54,4.78,14.34ZM236.43,20.8c.46-1.34,2.44-7.37,4.58-7.37,1,0,1.88,1.2,1.73,4.2-.36,7.33-4.73,15.64-5.88,18.66a68,68,0,0,1-4.39,8.85c0-3.61.85-15.33,4-24.34Zm55.81,48.09a4.88,4.88,0,1,0,4.88,4.88,4.88,4.88,0,0,0-4.88-4.88Zm0,9.08a4.2,4.2,0,1,1,4.21-4.2,4.2,4.2,0,0,1-4.21,4.2ZM289,72.84v-.56h2.58v.56h-1v2.62H290V72.84Zm4.5,1.94.57-2.5h1v3.18h-.62V72.79l-.6,2.67h-.64l-.6-2.67c0,.07,0,.15,0,.26v2.41H292V72.28h1l.58,2.5Z" transform="translate(0 -0.28)"></path>
</g>
</svg>