<?xml version="1.0" encoding="UTF-8"?> <svg xmlns="http://www.w3.org/2000/svg" id="Layer_1" data-name="Layer 1" viewBox="0 0 657.92 100.01"><defs><style>.cls-1{fill:#fff;}</style></defs><title>WeDoWood_Logo_white</title><path class="cls-1" d="M795.37,61.7v98.47h12V61.7Zm-380.78,0V160h12.13V61.7Zm56.48,30v9.63c8.65,1.39,12,7,12,25.66,0,20.51-4.6,25-16.46,25s-16.46-4.46-16.46-25c0-19.25,3.63-24.82,13-25.66V91.68c-15.76.84-25,7.81-25,35.15,0,28.6,10.32,34.59,28.45,34.59s28.59-6.13,28.59-34.59c0-26.92-8.92-34-24.13-35.15ZM369.53,126.14c0,30.4,11,35.28,27.34,35.28a34.87,34.87,0,0,0,11-1.67v-9.21c-2.23,1.12-6.22,1.4-9.56,1.4-11.16,0-16.88-3.21-16.88-25.94,0-20.65,5.86-24.69,17.29-24.69,3.21,0,7.05.28,9.15,1.26V93.08a42.89,42.89,0,0,0-10.68-1.4c-16.6,0-27.62,6.28-27.62,34.46ZM259.06,148.59h-1.4L244.55,98.24a8.49,8.49,0,0,0-8.65-6.56,8.83,8.83,0,0,0-8.78,6.56l-13.53,50.35h-1.26L197.82,93.08H185.13l18,61.65c1.39,4.74,5.57,6.69,9.9,6.69s8.51-1.95,10-7.67l11.86-45.47h1.39L248,153.05c1.67,6.28,5.86,8.37,10.32,8.37s8.51-1.95,9.9-6.69l17.85-61.65H273.42Zm52.45-18.69h34.73c0-29.57-8.23-38.22-26.64-38.22s-28.18,8.93-28.18,35.57c0,27.06,10.47,34.17,28.18,34.17,16.74,0,25.8-7.67,26.5-20.08H333.83c-.7,8.51-6,10.74-13.81,10.74-9.91,0-16.6-4.33-16.6-22.18v-7.53c0-16.6,5.58-21.2,15.9-21.2,9.9,0,14.23,3.91,14.93,20.36H311.51Zm274.77,18.83h-1.39L571.77,98.24a8.53,8.53,0,0,0-8.64-6.56,8.86,8.86,0,0,0-8.65,6.56L541,148.73h-1.4l-14.5-55.65H512.36l18,61.79c1.4,4.74,5.44,6.69,9.9,6.69s8.51-1.95,10-7.67l11.85-45.33h1.4L575.4,153.2c1.68,6.27,5.86,8.36,10.18,8.36s8.51-1.95,9.91-6.69l18-61.79H600.79ZM717,91.82v9.77c8.65,1.11,12.14,6.83,12.14,25.52,0,20.5-4.74,25-16.46,25s-16.46-4.47-16.46-25c0-19.25,3.63-24.69,12.69-25.52V91.82c-15.48,1-24.68,7.82-24.68,35,0,28.73,10.32,34.59,28.45,34.59s28.59-6.13,28.59-34.59c0-26.78-9.06-33.89-24.27-35Zm-70.43-.14c-17.86,0-28.46,5.86-28.46,35.15,0,26.08,8.51,33.48,23.72,34.45v-9.62c-8.37-1.26-11.72-7.11-11.72-24.55,0-21.48,4.46-25.8,16.46-25.8S663,105.63,663,127.11c0,18.55-3.91,23.85-13.25,24.83v9.48c15.9-.84,25.38-7.95,25.38-34.59,0-29.29-10.6-35.15-28.59-35.15Zm103.77,34.46c0,30.54,11,35.42,27.34,35.42a34.85,34.85,0,0,0,11-1.67v-9.07a27.79,27.79,0,0,1-9.42,1.4c-11.16,0-16.88-3.49-16.88-26.08,0-20.79,5.72-24.83,17.16-24.83,3.21,0,6.91.28,9.14,1.26V93.22a36.42,36.42,0,0,0-10.68-1.54C761.34,91.68,750.32,98.1,750.32,126.14Z" transform="translate(-185.13 -61.55)"></path><path class="cls-1" d="M824.3,63.36V74.42H822V63.36H818.2V61.55h9.87v1.81Z" transform="translate(-185.13 -61.55)"></path><path class="cls-1" d="M841,74.42V63.65h-.08l-3,10.77h-2.33l-3.13-10.77h-.08V74.42h-2.06V61.55h3.51l3,10.31h.08l2.78-10.31h3.44V74.42Z" transform="translate(-185.13 -61.55)"></path></svg> 